name C:\Users\u0101727\Documents\MyRepositories\upper-imu-dc\Results\main_mocap_tracking\Case_6\angularVelocities.mot
datacolumns 4
datarows 70
range 5.01000000 5.70000000
endheader 
time	radius_imu_x	radius_imu_y	radius_imu_z	
          5.01000000	          1.36991704	         -0.62616510	          0.18441681	
          5.02000000	          1.35426996	         -0.70521468	          0.18383615	
          5.03000000	          1.33701939	         -0.73567483	          0.18281222	
          5.04000000	          1.31748642	         -0.71907901	          0.18181458	
          5.05000000	          1.29627242	         -0.67518905	          0.18186173	
          5.06000000	          1.27442349	         -0.62550607	          0.18362954	
          5.07000000	          1.25292988	         -0.58417151	          0.18695200	
          5.08000000	          1.23228812	         -0.55088367	          0.19074711	
          5.09000000	          1.21235356	         -0.51019076	          0.19347429	
          5.10000000	          1.19331298	         -0.44990157	          0.19419090	
          5.11000000	          1.17690009	         -0.38321754	          0.19331495	
          5.12000000	          1.16611907	         -0.34737757	          0.19219627	
          5.13000000	          1.16360494	         -0.37985543	          0.19188564	
          5.14000000	          1.17018401	         -0.49423189	          0.19215107	
          5.15000000	          1.18450147	         -0.67094444	          0.19133799	
          5.16000000	          1.20353977	         -0.86376986	          0.18701432	
          5.17000000	          1.22364818	         -1.01717746	          0.17702862	
          5.18000000	          1.24172932	         -1.08833643	          0.16050216	
          5.19000000	          1.25605046	         -1.06149723	          0.13823651	
          5.20000000	          1.26654136	         -0.94790677	          0.11242266	
          5.21000000	          1.27469436	         -0.77797204	          0.08592862	
          5.22000000	          1.28257942	         -0.58816333	          0.06134499	
          5.23000000	          1.29129094	         -0.40500144	          0.04017654	
          5.24000000	          1.30039846	         -0.23906760	          0.02274597	
          5.25000000	          1.30869692	         -0.09126320	          0.00865372	
          5.26000000	          1.31503792	          0.04045612	         -0.00273553	
          5.27000000	          1.31874468	          0.15810522	         -0.01205766	
          5.28000000	          1.31978660	          0.25980399	         -0.01975268	
          5.29000000	          1.31871928	          0.33563045	         -0.02589189	
          5.30000000	          1.31639073	          0.36918670	         -0.03033471	
          5.31000000	          1.31365435	          0.34440411	         -0.03314464	
          5.32000000	          1.31125454	          0.25256348	         -0.03495717	
          5.33000000	          1.30959431	          0.09928625	         -0.03703642	
          5.34000000	          1.30837316	         -0.08999585	         -0.04096621	
          5.35000000	          1.30662854	         -0.27318867	         -0.04814720	
          5.36000000	          1.30331380	         -0.40546345	         -0.05933566	
          5.37000000	          1.29792907	         -0.45698115	         -0.07434944	
          5.38000000	          1.29083021	         -0.42399997	         -0.09208788	
          5.39000000	          1.28310436	         -0.32569370	         -0.11100321	
          5.40000000	          1.27599216	         -0.19033464	         -0.12972207	
          5.41000000	          1.27025039	         -0.04531634	         -0.14728191	
          5.42000000	          1.26604732	          0.08361366	         -0.16302014	
          5.43000000	          1.26329648	          0.17380019	         -0.17658025	
          5.44000000	          1.26192497	          0.21049134	         -0.18805000	
          5.45000000	          1.26202850	          0.18794577	         -0.19801598	
          5.46000000	          1.26384408	          0.10762358	         -0.20732915	
          5.47000000	          1.26752233	         -0.02233363	         -0.21680791	
          5.48000000	          1.27299161	         -0.18855544	         -0.22710928	
          5.49000000	          1.28001442	         -0.37639375	         -0.23865932	
          5.50000000	          1.28832889	         -0.57354823	         -0.25168087	
          5.51000000	          1.29775146	         -0.77113804	         -0.26634385	
          5.52000000	          1.30817306	         -0.96277213	         -0.28288344	
          5.53000000	          1.31944293	         -1.14363022	         -0.30151137	
          5.54000000	          1.33121929	         -1.31005259	         -0.32224476	
          5.55000000	          1.34288247	         -1.45887850	         -0.34487414	
          5.56000000	          1.35355497	         -1.58702867	         -0.36902925	
          5.57000000	          1.36224345	         -1.69159101	         -0.39428616	
          5.58000000	          1.36806953	         -1.76963046	         -0.42031532	
          5.59000000	          1.37044825	         -1.81830160	         -0.44687776	
          5.60000000	          1.36908543	         -1.83618242	         -0.47356648	
          5.61000000	          1.36387065	         -1.82488783	         -0.49956733	
          5.62000000	          1.35486961	         -1.78929262	         -0.52379493	
          5.63000000	          1.34245271	         -1.73582690	         -0.54536878	
          5.64000000	          1.32731960	         -1.66987712	         -0.56397879	
          5.65000000	          1.31026048	         -1.59372478	         -0.57985555	
          5.66000000	          1.29186502	         -1.50581600	         -0.59351832	
          5.67000000	          1.27244890	         -1.40172539	         -0.60550023	
          5.68000000	          1.25215155	         -1.27632149	         -0.61610275	
          5.69000000	          1.23101673	         -1.12559964	         -0.62524046	
          5.70000000	          1.20902630	         -0.94743695	         -0.63242782	
